<?xml version="1.0" encoding="UTF-8" standalone="no"?>
<svg
   xmlns:dc="http://purl.org/dc/elements/1.1/"
   xmlns:cc="http://creativecommons.org/ns#"
   xmlns:rdf="http://www.w3.org/1999/02/22-rdf-syntax-ns#"
   xmlns:svg="http://www.w3.org/2000/svg"
   xmlns="http://www.w3.org/2000/svg"
   xmlns:sodipodi="http://sodipodi.sourceforge.net/DTD/sodipodi-0.dtd"
   xmlns:inkscape="http://www.inkscape.org/namespaces/inkscape"
   sodipodi:docname="no_avatar1.svg"
   inkscape:version="1.0 (4035a4fb49, 2020-05-01)"
   id="svg8"
   version="1.1"
   viewBox="0 0 210 297"
   height="297mm"
   width="210mm">
  <defs
     id="defs2" />
  <sodipodi:namedview
     inkscape:window-maximized="0"
     inkscape:window-y="0"
     inkscape:window-x="0"
     inkscape:window-height="967"
     inkscape:window-width="1280"
     showgrid="false"
     inkscape:document-rotation="0"
     inkscape:current-layer="layer1"
     inkscape:document-units="mm"
     inkscape:cy="572.03607"
     inkscape:cx="38.800934"
     inkscape:zoom="0.35355339"
     inkscape:pageshadow="2"
     inkscape:pageopacity="0.0"
     borderopacity="1.0"
     bordercolor="#666666"
     pagecolor="#ffffff"
     id="base" />
  <metadata
     id="metadata5">
    <rdf:RDF>
      <cc:Work
         rdf:about="">
        <dc:format>image/svg+xml</dc:format>
        <dc:type
           rdf:resource="http://purl.org/dc/dcmitype/StillImage" />
        <dc:title></dc:title>
      </cc:Work>
    </rdf:RDF>
  </metadata>
  <g
     id="layer1"
     inkscape:groupmode="layer"
     inkscape:label="Слой 1">
    <path
       d="M 106.87993,54.434765 100.75266,76.312499 81.261863,69.324811 81.013816,85.055118 55.643269,84.214341 94.552524,108.10281 c 0,0 4.094456,48.16782 -6.193423,77.96629 -5.029403,14.5675 -26.08006,38.17546 -26.08006,38.17546 44.467899,-0.2726 44.601229,-0.27287 44.601409,-0.27287 1.9e-4,0 0.13351,2.7e-4 44.6009,0.27287 0,0 -21.05117,-23.60796 -26.08058,-38.17546 -10.28787,-29.79847 -6.19291,-77.96629 -6.19291,-77.96629 l 38.90926,-23.888469 -25.37106,0.840777 -0.24753,-15.730307 -19.4908,6.987688 z"
       style="fill:none;stroke:#000000;stroke-width:3.265;stroke-linecap:butt;stroke-linejoin:round;stroke-opacity:1;stroke-miterlimit:4;stroke-dasharray:none;paint-order:normal"
       id="path833" />
    <path
       transform="scale(0.26458333)"
       id="path866"
       d="m 252.81824,839.48379 c 0,-0.2463 8.20344,-10.73554 18.22986,-23.30943 20.82918,-26.12138 46.48632,-63.20911 57.04594,-82.46063 21.5624,-39.31098 33.63033,-100.35898 38.14009,-192.93914 2.30403,-47.29914 0.45756,-130.27575 -3.02438,-135.90965 -0.76234,-1.2335 -28.41243,-18.79228 -61.44463,-39.01953 -33.0322,-20.22725 -60.69625,-37.32724 -61.47565,-37.99999 -0.77941,-0.67274 15.1305,-1.22317 35.35534,-1.22317 h 36.77243 l 0.56372,-26.76904 c 0.31004,-14.72298 1.22953,-26.76904 2.0433,-26.76904 0.81377,0 15.38682,5.00025 32.38454,11.11167 16.99773,6.11143 32.64383,11.11168 34.76912,11.11168 4.03086,0 4.72527,-1.83945 16.77904,-44.44671 l 4.8582,-17.17259 4.19741,14.14213 c 2.30857,7.77818 6.00208,20.72087 8.20779,28.76155 4.79251,17.4706 5.47241,18.71562 10.22046,18.71562 2.02316,0 17.45287,-5.00025 34.28823,-11.11168 16.83537,-6.11142 30.90346,-11.11167 31.26243,-11.11167 0.35894,0 1.29295,11.5915 2.07554,25.75889 0.7826,14.16739 2.18896,26.53238 3.12527,27.47776 0.93629,0.94538 17.64195,1.39995 37.12371,1.01015 l 35.42134,-0.70872 -10.47219,6.50387 c -5.75973,3.57712 -33.911,20.85073 -62.55842,38.38579 -40.17147,24.58892 -52.41833,33.0373 -53.53809,36.9327 -0.79852,2.77792 -1.43041,40.05255 -1.40419,82.83251 0.0515,84.13508 2.25967,113.77822 12.13826,162.95221 11.821,58.84306 27.22286,89.85806 75.46647,151.9683 10.68307,13.75369 20.9499,26.97034 22.81519,29.37034 l 3.39142,4.36362 H 404.19702 c -83.25833,0 -151.37878,-0.20151 -151.37878,-0.4478 z"
       style="stroke-width:24.9309;stroke-linecap:round;stroke-linejoin:round;stroke-miterlimit:4;stroke-dasharray:none;paint-order:normal;fill-opacity:1;fill-rule:nonzero;fill:none" />
    <path
       transform="scale(0.26458333)"
       id="path2809"
       d="m 252.81824,839.48379 c 0,-0.2463 8.20344,-10.73554 18.22986,-23.30943 20.82918,-26.12138 46.48632,-63.20911 57.04594,-82.46063 21.5624,-39.31098 33.63033,-100.35898 38.14009,-192.93914 2.30403,-47.29914 0.45756,-130.27575 -3.02438,-135.90965 -0.76234,-1.2335 -28.41243,-18.79228 -61.44463,-39.01953 -33.0322,-20.22725 -60.69625,-37.32724 -61.47565,-37.99999 -0.77941,-0.67274 15.1305,-1.22317 35.35534,-1.22317 h 36.77243 l 0.56372,-26.76904 c 0.31004,-14.72298 1.22953,-26.76904 2.0433,-26.76904 0.81377,0 15.38682,5.00025 32.38454,11.11167 16.99773,6.11143 32.64383,11.11168 34.76912,11.11168 4.03086,0 4.72527,-1.83945 16.77904,-44.44671 l 4.8582,-17.17259 4.19741,14.14213 c 2.30857,7.77818 6.00208,20.72087 8.20779,28.76155 4.79251,17.4706 5.47241,18.71562 10.22046,18.71562 2.02316,0 17.45287,-5.00025 34.28823,-11.11168 16.83537,-6.11142 30.90346,-11.11167 31.26243,-11.11167 0.35894,0 1.29295,11.5915 2.07554,25.75889 0.7826,14.16739 2.18896,26.53238 3.12527,27.47776 0.93629,0.94538 17.64195,1.39995 37.12371,1.01015 l 35.42134,-0.70872 -10.47219,6.50387 c -5.75973,3.57712 -33.911,20.85073 -62.55842,38.38579 -40.17147,24.58892 -52.41833,33.0373 -53.53809,36.9327 -0.79852,2.77792 -1.43041,40.05255 -1.40419,82.83251 0.0515,84.13508 2.25967,113.77822 12.13826,162.95221 11.821,58.84306 27.22286,89.85806 75.46647,151.9683 10.68307,13.75369 20.9499,26.97034 22.81519,29.37034 l 3.39142,4.36362 H 404.19702 c -83.25833,0 -151.37878,-0.20151 -151.37878,-0.4478 z"
       style="fill:none;fill-opacity:1;fill-rule:nonzero;stroke-width:24.9309;stroke-linecap:round;stroke-linejoin:round;stroke-miterlimit:4;stroke-dasharray:none;paint-order:normal" />
    <path
       transform="scale(0.26458333)"
       id="path2811"
       d="m 252.81824,839.48379 c 0,-0.2463 8.20344,-10.73554 18.22986,-23.30943 20.82918,-26.12138 46.48632,-63.20911 57.04594,-82.46063 21.5624,-39.31098 33.63033,-100.35898 38.14009,-192.93914 2.30403,-47.29914 0.45756,-130.27575 -3.02438,-135.90965 -0.76234,-1.2335 -28.41243,-18.79228 -61.44463,-39.01953 -33.0322,-20.22725 -60.69625,-37.32724 -61.47565,-37.99999 -0.77941,-0.67274 15.1305,-1.22317 35.35534,-1.22317 h 36.77243 l 0.56372,-26.76904 c 0.31004,-14.72298 1.22953,-26.76904 2.0433,-26.76904 0.81377,0 15.38682,5.00025 32.38454,11.11167 16.99773,6.11143 32.64383,11.11168 34.76912,11.11168 4.03086,0 4.72527,-1.83945 16.77904,-44.44671 l 4.8582,-17.17259 4.19741,14.14213 c 2.30857,7.77818 6.00208,20.72087 8.20779,28.76155 4.79251,17.4706 5.47241,18.71562 10.22046,18.71562 2.02316,0 17.45287,-5.00025 34.28823,-11.11168 16.83537,-6.11142 30.90346,-11.11167 31.26243,-11.11167 0.35894,0 1.29295,11.5915 2.07554,25.75889 0.7826,14.16739 2.18896,26.53238 3.12527,27.47776 0.93629,0.94538 17.64195,1.39995 37.12371,1.01015 l 35.42134,-0.70872 -10.47219,6.50387 c -5.75973,3.57712 -33.911,20.85073 -62.55842,38.38579 -40.17147,24.58892 -52.41833,33.0373 -53.53809,36.9327 -0.79852,2.77792 -1.43041,40.05255 -1.40419,82.83251 0.0515,84.13508 2.25967,113.77822 12.13826,162.95221 11.821,58.84306 27.22286,89.85806 75.46647,151.9683 10.68307,13.75369 20.9499,26.97034 22.81519,29.37034 l 3.39142,4.36362 H 404.19702 c -83.25833,0 -151.37878,-0.20151 -151.37878,-0.4478 z"
       style="fill:none;fill-opacity:1;fill-rule:nonzero;stroke-width:24.9309;stroke-linecap:round;stroke-linejoin:round;stroke-miterlimit:4;stroke-dasharray:none;paint-order:normal" />
    <path
       transform="scale(0.26458333)"
       id="path2819"
       d="m 251.82797,839.06914 c 0.54025,-0.6875 5.21282,-6.425 10.38349,-12.75 41.63914,-50.93485 68.10855,-92.38598 78.80641,-123.41095 17.97126,-52.11861 27.39786,-135.69181 25.72721,-228.08905 -0.66563,-36.81343 -2.26536,-66.9044 -3.69929,-69.58373 -0.49482,-0.92458 -28.24966,-18.4613 -61.67743,-38.97049 -33.42777,-20.50919 -61.67776,-37.93219 -62.77776,-38.71777 -1.74498,-1.2462 1.37901,-1.34947 24.5,-0.80985 14.575,0.34017 30.62412,0.89408 35.66471,1.23091 8.90257,0.59491 9.23866,0.53848 11.75,-1.97287 l 2.58529,-2.58529 0.0153,-24.29546 c 0.008,-13.3625 0.4166,-24.92935 0.90708,-25.70412 0.7272,-1.14872 7.01556,0.78033 34.07664,10.45357 31.62012,11.30292 33.31021,11.79199 35.84292,10.37225 2.42415,-1.35888 3.40112,-4.14909 11.10267,-31.70894 4.64455,-16.62042 8.76562,-29.87903 9.15795,-29.46358 0.39232,0.41545 4.34596,13.80537 8.78586,29.75537 8.07796,29.01942 9.53623,32.5 13.61666,32.5 0.70594,0 16.114,-5.31857 34.24012,-11.81905 l 32.95659,-11.81905 0.64577,15.56905 c 0.35516,8.56298 0.64726,20.40655 0.64909,26.31905 0.003,9.63877 0.22389,10.97056 2.13707,12.88374 1.97947,1.97947 2.82904,2.08973 11.75,1.525 5.28894,-0.33481 21.54126,-0.88911 36.11626,-1.23178 l 26.5,-0.62303 -5.5,3.49486 c -3.025,1.92217 -30.925,19.091 -62,38.15295 -31.075,19.06195 -57.28784,35.43372 -58.25076,36.38171 -2.96532,2.91937 -4.159,27.79672 -4.20644,87.66655 -0.0439,55.38734 0.67246,72.61114 4.47527,107.60063 5.70002,52.44568 15.48746,94.96348 27.98109,121.55317 12.30344,26.18493 35.94888,61.15521 68.69507,101.5962 l 14.37267,17.75 H 404.0016 c -122.38191,0 -152.95852,-0.25117 -152.17363,-1.25 z"
       style="fill:#000000;fill-opacity:1;fill-rule:nonzero;stroke-width:12.3402;stroke-linecap:round;stroke-linejoin:round;stroke-miterlimit:4;stroke-dasharray:none;paint-order:normal" />
  </g>
</svg>
